<?xml version="1.0" standalone="no"?>
<!DOCTYPE svg PUBLIC "-//W3C//DTD SVG 20010904//EN"
 "http://www.w3.org/TR/2001/REC-SVG-20010904/DTD/svg10.dtd">
<svg version="1.0" xmlns="http://www.w3.org/2000/svg"
 width="205.000000pt" height="205.000000pt" viewBox="0 0 205.000000 205.000000"
 preserveAspectRatio="xMidYMid meet">
<g transform="translate(0.000000,205.000000) scale(0.100000,-0.100000)"
fill="#000000" stroke="none">
<path d="M1063 2014 c-21 -23 -92 -48 -166 -58 -56 -9 -101 -30 -125 -61 -13
-17 -22 -22 -22 -13 0 17 -64 94 -91 108 -17 10 -18 8 -9 -14 8 -21 6 -24 -7
-19 -12 5 -13 2 -5 -13 9 -18 15 -71 13 -121 -1 -18 -89 -125 -92 -111 0 1 -2
14 -5 28 -5 32 -36 90 -47 90 -5 0 -7 -9 -4 -20 3 -11 1 -18 -4 -14 -5 3 -9
-11 -9 -30 0 -44 -29 -106 -49 -106 -8 0 -22 6 -30 14 -9 7 -85 59 -168 115
-143 96 -207 130 -219 118 -16 -15 18 -70 85 -137 79 -78 224 -209 247 -223
10 -6 10 -15 -1 -50 -8 -23 -15 -50 -17 -60 -3 -15 -8 -13 -40 13 l-37 31 -8
-38 c-15 -79 -4 -132 41 -182 l21 -24 -49 7 c-47 6 -48 5 -33 -12 24 -27 21
-33 -10 -21 l-28 10 28 -29 c39 -41 133 -88 182 -91 7 -1 10 -34 8 -93 -2 -74
-7 -103 -26 -143 -13 -27 -37 -86 -52 -130 -16 -44 -36 -89 -45 -100 -41 -48
-54 -223 -19 -249 9 -6 23 -25 33 -42 10 -17 43 -45 72 -63 49 -29 60 -32 109
-27 69 8 80 12 95 41 7 13 17 22 22 19 4 -3 6 -9 3 -14 -3 -5 2 -16 12 -25 13
-13 26 -15 57 -10 23 4 57 9 76 11 80 11 113 61 116 179 1 77 18 171 34 189
14 14 84 -14 112 -46 34 -37 42 -78 34 -166 -10 -96 -20 -135 -52 -189 -32
-55 -151 -178 -185 -192 -18 -7 -19 -10 -6 -10 9 -1 17 -4 17 -7 0 -4 -8 -13
-17 -20 -15 -11 -15 -13 -3 -13 13 0 105 18 170 33 124 29 295 101 367 154 53
40 70 65 104 161 30 82 37 79 15 -6 -8 -29 -11 -53 -7 -53 18 0 123 119 150
169 34 65 73 179 65 192 -3 5 0 9 5 9 6 0 11 -8 11 -17 0 -31 19 -5 76 103 78
148 99 275 58 356 -13 26 -24 51 -24 56 0 4 16 14 35 21 40 14 74 56 98 119
21 52 22 79 5 64 -7 -5 -29 -13 -48 -17 l-35 -7 21 23 c12 13 32 44 44 68 22
45 32 47 85 25 19 -8 20 -7 2 19 -18 27 -11 37 11 15 9 -9 12 -9 12 1 0 25
-57 71 -92 72 -55 3 -64 2 -92 -5 -15 -4 -26 -2 -26 4 0 5 8 10 19 10 10 0 24
6 30 14 9 11 7 12 -13 9 -30 -6 -80 20 -131 68 -22 21 -43 39 -48 39 -4 0 -1
14 8 30 9 17 12 30 8 30 -4 0 -2 5 5 12 7 7 12 25 12 40 0 28 0 28 -26 11 -33
-21 -83 -19 -187 7 -43 11 -83 17 -89 14 -11 -7 -10 -1 8 63 6 21 5 21 -40 8
-25 -8 -54 -12 -63 -11 -10 2 -38 7 -62 11 -24 4 -58 13 -75 19 -17 7 -45 12
-63 11 -18 -1 -30 1 -28 5 9 14 23 90 16 89 -3 -1 -16 -12 -28 -25z m637 -484
c0 -5 -18 -10 -41 -10 -24 0 -38 4 -34 10 3 6 22 10 41 10 19 0 34 -4 34 -10z"/>
</g>
</svg>
