<?xml version="1.0" encoding="UTF-8" standalone="no"?>
<svg width="627px" height="54px" viewBox="0 0 627 54" version="1.1" xmlns="http://www.w3.org/2000/svg" xmlns:xlink="http://www.w3.org/1999/xlink">
    <!-- Generator: Sketch 3.7.2 (28276) - http://www.bohemiancoding.com/sketch -->
    <title>gov-au_logo</title>
    <desc>Created with Sketch.</desc>
    <defs></defs>
    <g id="Symbols" stroke="none" stroke-width="1" fill="none" fill-rule="evenodd">
        <g id="Header" transform="translate(-130.000000, -13.000000)">
            <g id="gov-au_logo" transform="translate(130.000000, 14.000000)">
                <path d="M17.2177734,25.7226562 L31.4296875,25.7226562 L31.4296875,43.3095703 C27.7031064,44.8916095 23.5107655,45.6826172 18.8525391,45.6826172 C12.7704774,45.6826172 8.10792637,43.9643727 4.86474609,40.527832 C1.62156582,37.0912914 0,32.226594 0,25.9335938 C0,22.0136523 0.804191177,18.5376128 2.41259766,15.5053711 C4.02100414,12.4731294 6.32371548,10.1308676 9.32080078,8.47851562 C12.3178861,6.82616361 15.7587696,6 19.6435547,6 C23.8447476,6 27.6152177,6.77342977 30.9550781,8.3203125 L29.8740234,10.7460938 C26.534163,9.19921102 23.071307,8.42578125 19.4853516,8.42578125 C14.405248,8.42578125 10.3755032,9.99461322 7.39599609,13.1323242 C4.41648901,16.2700352 2.92675781,20.5019265 2.92675781,25.828125 C2.92675781,31.6289353 4.34178272,35.9926611 7.171875,38.9194336 C10.0019673,41.846206 14.1591523,43.3095703 19.6435547,43.3095703 C23.1943537,43.3095703 26.208972,42.8085988 28.6875,41.8066406 L28.6875,28.2539062 L17.2177734,28.2539062 L17.2177734,25.7226562 Z M73.5259305,25.828125 C73.5259305,31.9453431 71.9966489,36.7836736 68.9380399,40.3432617 C65.8794309,43.9028498 61.660723,45.6826172 56.2817899,45.6826172 C50.920435,45.6826172 46.7105161,43.9028498 43.6519071,40.3432617 C40.593298,36.7836736 39.0640165,31.9277651 39.0640165,25.7753906 C39.0640165,19.6405943 40.6064815,14.8110528 43.6914579,11.2866211 C46.7764342,7.76218941 50.9907476,6 56.3345243,6 C61.7134574,6 65.9233763,7.77097838 68.9644071,11.3129883 C72.0054379,14.8549982 73.5259305,19.6933287 73.5259305,25.828125 L73.5259305,25.828125 Z M41.9907743,25.828125 C41.9907743,31.3476838 43.2212307,35.614731 45.6821805,38.6293945 C48.1431303,41.644058 51.6762981,43.1513672 56.2817899,43.1513672 C60.9224381,43.1513672 64.4687894,41.6572415 66.9209501,38.6689453 C69.3731108,35.6806491 70.5991727,31.4004185 70.5991727,25.828125 C70.5991727,20.2734097 69.3731108,16.0151515 66.9209501,13.0532227 C64.4687894,10.0912938 60.9400161,8.61035156 56.3345243,8.61035156 C51.7466107,8.61035156 48.2090484,10.1044772 45.7217313,13.0927734 C43.2344142,16.0810696 41.9907743,20.3261444 41.9907743,25.828125 L41.9907743,25.828125 Z M104.653424,6.60644531 L107.580181,6.60644531 L93.1573298,45.1552734 L90.7842829,45.1552734 L76.4141657,6.60644531 L79.2881892,6.60644531 L88.9913142,32.8417969 C90.4678841,36.7968948 91.4610382,39.7675682 91.9708064,41.7539062 C92.3223706,40.4355403 93.0166996,38.3877092 94.0538142,35.6103516 L104.653424,6.60644531 Z M109.176424,43.0986328 C109.176424,41.3759679 109.879542,40.5146484 111.285799,40.5146484 C112.727213,40.5146484 113.447909,41.3759679 113.447909,43.0986328 C113.447909,44.8212977 112.727213,45.6826172 111.285799,45.6826172 C109.879542,45.6826172 109.176424,44.8212977 109.176424,43.0986328 L109.176424,43.0986328 Z M155.822035,31.5498047 L140.159926,31.5498047 L134.78102,45.1552734 L131.801528,45.1552734 L147.305434,6.44824219 L149.019301,6.44824219 L164.206801,45.1552734 L161.174574,45.1552734 L155.822035,31.5498047 Z M141.135512,29.1240234 L154.925551,29.1240234 L149.678481,15.2285156 C149.239025,14.1386664 148.711687,12.6269628 148.096449,10.6933594 C147.621838,12.3808678 147.103288,13.9101494 146.540785,15.28125 L141.135512,29.1240234 Z M198.023747,6.60644531 L198.023747,31.5498047 C198.023747,35.9795143 196.740557,39.4423703 194.174138,41.9384766 C191.607719,44.4345828 188.030606,45.6826172 183.442693,45.6826172 C178.977826,45.6826172 175.492998,44.4301883 172.988103,41.925293 C170.483207,39.4203976 169.230778,35.9267802 169.230778,31.4443359 L169.230778,6.60644531 L171.946599,6.60644531 L171.946599,31.5498047 C171.946599,35.2588076 172.974909,38.1459858 175.03156,40.2114258 C177.088211,42.2768658 179.997361,43.3095703 183.759099,43.3095703 C187.432945,43.3095703 190.280573,42.2944437 192.302068,40.2641602 C194.323562,38.2338766 195.334294,35.4170102 195.334294,31.8134766 L195.334294,6.60644531 L198.023747,6.60644531 Z" id="GOV.-AU" fill="#FFFFFF"></path>
                <path d="M231.5,0 L231.5,52.23983" id="Line" stroke="#FFFFFF" stroke-linecap="square"></path>
                <path d="M279.484375,22.296875 C279.484375,24.6093866 278.69532,26.3880146 277.117188,27.6328125 C275.539055,28.8776104 273.281265,29.5 270.34375,29.5 L267.65625,29.5 L267.65625,38.484375 L265,38.484375 L265,15.640625 L270.921875,15.640625 C276.630237,15.640625 279.484375,17.8593528 279.484375,22.296875 L279.484375,22.296875 Z M267.65625,27.21875 L270.046875,27.21875 C272.401053,27.21875 274.104161,26.8385455 275.15625,26.078125 C276.208339,25.3177045 276.734375,24.0989667 276.734375,22.421875 C276.734375,20.9114508 276.239588,19.786462 275.25,19.046875 C274.260412,18.307288 272.71876,17.9375 270.625,17.9375 L267.65625,17.9375 L267.65625,27.21875 Z M291.109375,38.796875 C288.578112,38.796875 286.580736,38.0260494 285.117188,36.484375 C283.653639,34.9427006 282.921875,32.802097 282.921875,30.0625 C282.921875,27.3020695 283.601556,25.1093831 284.960938,23.484375 C286.320319,21.8593669 288.145822,21.046875 290.4375,21.046875 C292.583344,21.046875 294.281244,21.7525971 295.53125,23.1640625 C296.781256,24.5755279 297.40625,26.4374884 297.40625,28.75 L297.40625,30.390625 L285.609375,30.390625 C285.661459,32.4010517 286.169266,33.9270781 287.132812,34.96875 C288.096359,36.0104219 289.453116,36.53125 291.203125,36.53125 C293.046884,36.53125 294.869783,36.1458372 296.671875,35.375 L296.671875,37.6875 C295.755204,38.0833353 294.888025,38.3671866 294.070312,38.5390625 C293.2526,38.7109384 292.265631,38.796875 291.109375,38.796875 L291.109375,38.796875 Z M290.40625,23.21875 C289.031243,23.21875 287.9349,23.6666622 287.117188,24.5625 C286.299475,25.4583378 285.817709,26.6979087 285.671875,28.28125 L294.625,28.28125 C294.625,26.6458252 294.26042,25.3932335 293.53125,24.5234375 C292.80208,23.6536415 291.760423,23.21875 290.40625,23.21875 L290.40625,23.21875 Z M309.640625,21.046875 C310.401045,21.046875 311.08333,21.1093744 311.6875,21.234375 L311.328125,23.640625 C310.619788,23.4843742 309.994794,23.40625 309.453125,23.40625 C308.067701,23.40625 306.882817,23.9687444 305.898438,25.09375 C304.914058,26.2187556 304.421875,27.6197833 304.421875,29.296875 L304.421875,38.484375 L301.828125,38.484375 L301.828125,21.359375 L303.96875,21.359375 L304.265625,24.53125 L304.390625,24.53125 C305.026045,23.4166611 305.791662,22.5572947 306.6875,21.953125 C307.583338,21.3489553 308.567703,21.046875 309.640625,21.046875 L309.640625,21.046875 Z M322.609375,23.375 L318.25,23.375 L318.25,38.484375 L315.65625,38.484375 L315.65625,23.375 L312.59375,23.375 L312.59375,22.203125 L315.65625,21.265625 L315.65625,20.3125 C315.65625,16.1041456 317.494773,14 321.171875,14 C322.07813,14 323.140619,14.1822898 324.359375,14.546875 L323.6875,16.625 C322.687495,16.3020817 321.833337,16.140625 321.125,16.140625 C320.145828,16.140625 319.421877,16.4661426 318.953125,17.1171875 C318.484373,17.7682324 318.25,18.8124928 318.25,20.25 L318.25,21.359375 L322.609375,21.359375 L322.609375,23.375 Z M340.515625,29.90625 C340.515625,32.6979306 339.812507,34.8775963 338.40625,36.4453125 C336.999993,38.0130287 335.057304,38.796875 332.578125,38.796875 C331.046867,38.796875 329.687506,38.4375036 328.5,37.71875 C327.312494,36.9999964 326.395837,35.9687567 325.75,34.625 C325.104163,33.2812433 324.78125,31.7083423 324.78125,29.90625 C324.78125,27.1145694 325.47916,24.940112 326.875,23.3828125 C328.27084,21.825513 330.208321,21.046875 332.6875,21.046875 C335.083345,21.046875 336.986972,21.843742 338.398438,23.4375 C339.809903,25.031258 340.515625,27.1874864 340.515625,29.90625 L340.515625,29.90625 Z M327.46875,29.90625 C327.46875,32.0937609 327.906246,33.7604109 328.78125,34.90625 C329.656254,36.0520891 330.9427,36.625 332.640625,36.625 C334.33855,36.625 335.6276,36.0546932 336.507812,34.9140625 C337.388025,33.7734318 337.828125,32.1041777 337.828125,29.90625 C337.828125,27.7291558 337.388025,26.0755265 336.507812,24.9453125 C335.6276,23.8150985 334.328134,23.25 332.609375,23.25 C330.91145,23.25 329.630213,23.8072861 328.765625,24.921875 C327.901037,26.0364639 327.46875,27.6979056 327.46875,29.90625 L327.46875,29.90625 Z M352.875,21.046875 C353.63542,21.046875 354.317705,21.1093744 354.921875,21.234375 L354.5625,23.640625 C353.854163,23.4843742 353.229169,23.40625 352.6875,23.40625 C351.302076,23.40625 350.117192,23.9687444 349.132812,25.09375 C348.148433,26.2187556 347.65625,27.6197833 347.65625,29.296875 L347.65625,38.484375 L345.0625,38.484375 L345.0625,21.359375 L347.203125,21.359375 L347.5,24.53125 L347.625,24.53125 C348.26042,23.4166611 349.026037,22.5572947 349.921875,21.953125 C350.817713,21.3489553 351.802078,21.046875 352.875,21.046875 L352.875,21.046875 Z M379.953125,38.484375 L379.953125,27.34375 C379.953125,25.9791598 379.661461,24.9557326 379.078125,24.2734375 C378.494789,23.5911424 377.588548,23.25 376.359375,23.25 C374.744784,23.25 373.552087,23.713537 372.78125,24.640625 C372.010413,25.567713 371.625,26.994782 371.625,28.921875 L371.625,38.484375 L369.03125,38.484375 L369.03125,27.34375 C369.03125,25.9791598 368.739586,24.9557326 368.15625,24.2734375 C367.572914,23.5911424 366.661465,23.25 365.421875,23.25 C363.796867,23.25 362.606775,23.7369743 361.851562,24.7109375 C361.09635,25.6849007 360.71875,27.2812389 360.71875,29.5 L360.71875,38.484375 L358.125,38.484375 L358.125,21.359375 L360.234375,21.359375 L360.65625,23.703125 L360.78125,23.703125 C361.270836,22.8697875 361.960933,22.2187523 362.851562,21.75 C363.742192,21.2812477 364.739578,21.046875 365.84375,21.046875 C368.520847,21.046875 370.270829,22.0156153 371.09375,23.953125 L371.21875,23.953125 C371.729169,23.0572872 372.468745,22.3489609 373.4375,21.828125 C374.406255,21.3072891 375.51041,21.046875 376.75,21.046875 C378.68751,21.046875 380.138016,21.5442659 381.101562,22.5390625 C382.065109,23.5338591 382.546875,25.1249891 382.546875,27.3125 L382.546875,38.484375 L379.953125,38.484375 Z M398.421875,38.484375 L397.90625,36.046875 L397.78125,36.046875 C396.927079,37.119797 396.075525,37.8463523 395.226562,38.2265625 C394.3776,38.6067727 393.317715,38.796875 392.046875,38.796875 C390.34895,38.796875 389.018234,38.3593794 388.054688,37.484375 C387.091141,36.6093706 386.609375,35.3645914 386.609375,33.75 C386.609375,30.2916494 389.374972,28.4791675 394.90625,28.3125 L397.8125,28.21875 L397.8125,27.15625 C397.8125,25.8124933 397.52344,24.8203157 396.945312,24.1796875 C396.367185,23.5390593 395.442715,23.21875 394.171875,23.21875 C392.744785,23.21875 391.130217,23.6562456 389.328125,24.53125 L388.53125,22.546875 C389.375004,22.0885394 390.299474,21.729168 391.304688,21.46875 C392.309901,21.208332 393.317703,21.078125 394.328125,21.078125 C396.369802,21.078125 397.882808,21.5312455 398.867188,22.4375 C399.851567,23.3437545 400.34375,24.796865 400.34375,26.796875 L400.34375,38.484375 L398.421875,38.484375 Z M392.5625,36.65625 C394.177091,36.65625 395.445308,36.2135461 396.367188,35.328125 C397.289067,34.4427039 397.75,33.203133 397.75,31.609375 L397.75,30.0625 L395.15625,30.171875 C393.09374,30.244792 391.606775,30.5651013 390.695312,31.1328125 C389.78385,31.7005237 389.328125,32.5833273 389.328125,33.78125 C389.328125,34.7187547 389.611976,35.4322892 390.179688,35.921875 C390.747399,36.4114608 391.541662,36.65625 392.5625,36.65625 L392.5625,36.65625 Z M417.40625,38.484375 L417.40625,27.40625 C417.40625,26.0104097 417.088545,24.9687534 416.453125,24.28125 C415.817705,23.5937466 414.822923,23.25 413.46875,23.25 C411.677074,23.25 410.364587,23.7343702 409.53125,24.703125 C408.697913,25.6718798 408.28125,27.2708222 408.28125,29.5 L408.28125,38.484375 L405.6875,38.484375 L405.6875,21.359375 L407.796875,21.359375 L408.21875,23.703125 L408.34375,23.703125 C408.875003,22.8593708 409.619787,22.2057315 410.578125,21.7421875 C411.536463,21.2786435 412.604161,21.046875 413.78125,21.046875 C415.84376,21.046875 417.395828,21.5442659 418.4375,22.5390625 C419.479172,23.5338591 420,25.1249891 420,27.3125 L420,38.484375 L417.40625,38.484375 Z M432.171875,38.796875 C429.692696,38.796875 427.773444,38.0338618 426.414062,36.5078125 C425.054681,34.9817632 424.375,32.8229306 424.375,30.03125 C424.375,27.1666523 425.065097,24.9531328 426.445312,23.390625 C427.825528,21.8281172 429.791654,21.046875 432.34375,21.046875 C433.166671,21.046875 433.989579,21.1354158 434.8125,21.3125 C435.635421,21.4895842 436.281248,21.6979155 436.75,21.9375 L435.953125,24.140625 C435.380205,23.9114572 434.755212,23.7213549 434.078125,23.5703125 C433.401038,23.4192701 432.802086,23.34375 432.28125,23.34375 C428.802066,23.34375 427.0625,25.5624778 427.0625,30 C427.0625,32.1041772 427.486975,33.7187444 428.335938,34.84375 C429.1849,35.9687556 430.4427,36.53125 432.109375,36.53125 C433.536465,36.53125 434.999992,36.2239614 436.5,35.609375 L436.5,37.90625 C435.354161,38.500003 433.911467,38.796875 432.171875,38.796875 L432.171875,38.796875 Z M447.796875,38.796875 C445.265612,38.796875 443.268236,38.0260494 441.804688,36.484375 C440.341139,34.9427006 439.609375,32.802097 439.609375,30.0625 C439.609375,27.3020695 440.289056,25.1093831 441.648438,23.484375 C443.007819,21.8593669 444.833322,21.046875 447.125,21.046875 C449.270844,21.046875 450.968744,21.7525971 452.21875,23.1640625 C453.468756,24.5755279 454.09375,26.4374884 454.09375,28.75 L454.09375,30.390625 L442.296875,30.390625 C442.348959,32.4010517 442.856766,33.9270781 443.820312,34.96875 C444.783859,36.0104219 446.140616,36.53125 447.890625,36.53125 C449.734384,36.53125 451.557283,36.1458372 453.359375,35.375 L453.359375,37.6875 C452.442704,38.0833353 451.575525,38.3671866 450.757812,38.5390625 C449.9401,38.7109384 448.953131,38.796875 447.796875,38.796875 L447.796875,38.796875 Z M447.09375,23.21875 C445.718743,23.21875 444.6224,23.6666622 443.804688,24.5625 C442.986975,25.4583378 442.505209,26.6979087 442.359375,28.28125 L451.3125,28.28125 C451.3125,26.6458252 450.94792,25.3932335 450.21875,24.5234375 C449.48958,23.6536415 448.447923,23.21875 447.09375,23.21875 L447.09375,23.21875 Z M485.453125,26.84375 C485.453125,30.6146022 484.429698,33.4973859 482.382812,35.4921875 C480.335927,37.4869891 477.390644,38.484375 473.546875,38.484375 L467.21875,38.484375 L467.21875,15.640625 L474.21875,15.640625 C477.770851,15.640625 480.53124,16.6249902 482.5,18.59375 C484.46876,20.5625098 485.453125,23.3124823 485.453125,26.84375 L485.453125,26.84375 Z M482.640625,26.9375 C482.640625,23.9583184 481.893237,21.7135492 480.398438,20.203125 C478.903638,18.6927008 476.682306,17.9375 473.734375,17.9375 L469.875,17.9375 L469.875,36.1875 L473.109375,36.1875 C476.276057,36.1875 478.656242,35.408862 480.25,33.8515625 C481.843758,32.294263 482.640625,29.9895986 482.640625,26.9375 L482.640625,26.9375 Z M500.6875,38.484375 L500.171875,36.046875 L500.046875,36.046875 C499.192704,37.119797 498.34115,37.8463523 497.492188,38.2265625 C496.643225,38.6067727 495.58334,38.796875 494.3125,38.796875 C492.614575,38.796875 491.283859,38.3593794 490.320312,37.484375 C489.356766,36.6093706 488.875,35.3645914 488.875,33.75 C488.875,30.2916494 491.640597,28.4791675 497.171875,28.3125 L500.078125,28.21875 L500.078125,27.15625 C500.078125,25.8124933 499.789065,24.8203157 499.210938,24.1796875 C498.63281,23.5390593 497.70834,23.21875 496.4375,23.21875 C495.01041,23.21875 493.395842,23.6562456 491.59375,24.53125 L490.796875,22.546875 C491.640629,22.0885394 492.565099,21.729168 493.570312,21.46875 C494.575526,21.208332 495.583328,21.078125 496.59375,21.078125 C498.635427,21.078125 500.148433,21.5312455 501.132812,22.4375 C502.117192,23.3437545 502.609375,24.796865 502.609375,26.796875 L502.609375,38.484375 L500.6875,38.484375 Z M494.828125,36.65625 C496.442716,36.65625 497.710933,36.2135461 498.632812,35.328125 C499.554692,34.4427039 500.015625,33.203133 500.015625,31.609375 L500.015625,30.0625 L497.421875,30.171875 C495.359365,30.244792 493.8724,30.5651013 492.960938,31.1328125 C492.049475,31.7005237 491.59375,32.5833273 491.59375,33.78125 C491.59375,34.7187547 491.877601,35.4322892 492.445312,35.921875 C493.013024,36.4114608 493.807287,36.65625 494.828125,36.65625 L494.828125,36.65625 Z M519,33.8125 C519,35.406258 518.406256,36.6354123 517.21875,37.5 C516.031244,38.3645877 514.364594,38.796875 512.21875,38.796875 C509.947905,38.796875 508.17709,38.4375036 506.90625,37.71875 L506.90625,35.3125 C507.729171,35.7291687 508.611974,36.0572905 509.554688,36.296875 C510.497401,36.5364595 511.406246,36.65625 512.28125,36.65625 C513.635423,36.65625 514.67708,36.4401063 515.40625,36.0078125 C516.13542,35.5755187 516.5,34.9166711 516.5,34.03125 C516.5,33.36458 516.21094,32.7942732 515.632812,32.3203125 C515.054685,31.8463518 513.927092,31.2864616 512.25,30.640625 C510.656242,30.046872 509.523441,29.528648 508.851562,29.0859375 C508.179684,28.643227 507.679689,28.1406278 507.351562,27.578125 C507.023436,27.0156222 506.859375,26.3437539 506.859375,25.5625 C506.859375,24.1666597 507.427078,23.0651082 508.5625,22.2578125 C509.697922,21.4505168 511.255198,21.046875 513.234375,21.046875 C515.078134,21.046875 516.8802,21.4218712 518.640625,22.171875 L517.71875,24.28125 C515.999991,23.5729131 514.442715,23.21875 513.046875,23.21875 C511.817702,23.21875 510.890628,23.4114564 510.265625,23.796875 C509.640622,24.1822936 509.328125,24.7135383 509.328125,25.390625 C509.328125,25.8489606 509.445311,26.2395817 509.679688,26.5625 C509.914064,26.8854183 510.291664,27.1927069 510.8125,27.484375 C511.333336,27.7760431 512.333326,28.1979139 513.8125,28.75 C515.84376,29.489587 517.216142,30.2343713 517.929688,30.984375 C518.643233,31.7343787 519,32.6770777 519,33.8125 L519,33.8125 Z M534.9375,38.484375 L534.9375,27.40625 C534.9375,26.0104097 534.619795,24.9687534 533.984375,24.28125 C533.348955,23.5937466 532.354173,23.25 531,23.25 C529.197908,23.25 527.882817,23.7395784 527.054688,24.71875 C526.226558,25.6979216 525.8125,27.3020722 525.8125,29.53125 L525.8125,38.484375 L523.21875,38.484375 L523.21875,14.171875 L525.8125,14.171875 L525.8125,21.53125 C525.8125,22.4166711 525.770834,23.1510387 525.6875,23.734375 L525.84375,23.734375 C526.354169,22.9114542 527.080724,22.2630232 528.023438,21.7890625 C528.966151,21.3151018 530.041661,21.078125 531.25,21.078125 C533.34376,21.078125 534.914057,21.5755159 535.960938,22.5703125 C537.007818,23.5651091 537.53125,25.1458225 537.53125,27.3125 L537.53125,38.484375 L534.9375,38.484375 Z M550.828125,21.078125 C553.078136,21.078125 554.825515,21.8463465 556.070312,23.3828125 C557.31511,24.9192785 557.9375,27.0937359 557.9375,29.90625 C557.9375,32.7187641 557.309902,34.903638 556.054688,36.4609375 C554.799473,38.018237 553.057303,38.796875 550.828125,38.796875 C549.713536,38.796875 548.695317,38.5911479 547.773438,38.1796875 C546.851558,37.7682271 546.078128,37.1354209 545.453125,36.28125 L545.265625,36.28125 L544.71875,38.484375 L542.859375,38.484375 L542.859375,14.171875 L545.453125,14.171875 L545.453125,20.078125 C545.453125,21.4010483 545.411459,22.5885364 545.328125,23.640625 L545.453125,23.640625 C546.661464,21.9322831 548.453113,21.078125 550.828125,21.078125 L550.828125,21.078125 Z M550.453125,23.25 C548.682283,23.25 547.406254,23.7578074 546.625,24.7734375 C545.843746,25.7890676 545.453125,27.499988 545.453125,29.90625 C545.453125,32.312512 545.854163,34.033849 546.65625,35.0703125 C547.458337,36.106776 548.744783,36.625 550.515625,36.625 C552.109383,36.625 553.296871,36.0442766 554.078125,34.8828125 C554.859379,33.7213484 555.25,32.0520942 555.25,29.875 C555.25,27.6458222 554.859379,25.9843805 554.078125,24.890625 C553.296871,23.7968695 552.08855,23.25 550.453125,23.25 L550.453125,23.25 Z M577.25,29.90625 C577.25,32.6979306 576.546882,34.8775963 575.140625,36.4453125 C573.734368,38.0130287 571.791679,38.796875 569.3125,38.796875 C567.781242,38.796875 566.421881,38.4375036 565.234375,37.71875 C564.046869,36.9999964 563.130212,35.9687567 562.484375,34.625 C561.838538,33.2812433 561.515625,31.7083423 561.515625,29.90625 C561.515625,27.1145694 562.213535,24.940112 563.609375,23.3828125 C565.005215,21.825513 566.942696,21.046875 569.421875,21.046875 C571.81772,21.046875 573.721347,21.843742 575.132812,23.4375 C576.544278,25.031258 577.25,27.1874864 577.25,29.90625 L577.25,29.90625 Z M564.203125,29.90625 C564.203125,32.0937609 564.640621,33.7604109 565.515625,34.90625 C566.390629,36.0520891 567.677075,36.625 569.375,36.625 C571.072925,36.625 572.361975,36.0546932 573.242188,34.9140625 C574.1224,33.7734318 574.5625,32.1041777 574.5625,29.90625 C574.5625,27.7291558 574.1224,26.0755265 573.242188,24.9453125 C572.361975,23.8150985 571.062509,23.25 569.34375,23.25 C567.645825,23.25 566.364588,23.8072861 565.5,24.921875 C564.635412,26.0364639 564.203125,27.6979056 564.203125,29.90625 L564.203125,29.90625 Z M592.328125,38.484375 L591.8125,36.046875 L591.6875,36.046875 C590.833329,37.119797 589.981775,37.8463523 589.132812,38.2265625 C588.28385,38.6067727 587.223965,38.796875 585.953125,38.796875 C584.2552,38.796875 582.924484,38.3593794 581.960938,37.484375 C580.997391,36.6093706 580.515625,35.3645914 580.515625,33.75 C580.515625,30.2916494 583.281222,28.4791675 588.8125,28.3125 L591.71875,28.21875 L591.71875,27.15625 C591.71875,25.8124933 591.42969,24.8203157 590.851562,24.1796875 C590.273435,23.5390593 589.348965,23.21875 588.078125,23.21875 C586.651035,23.21875 585.036467,23.6562456 583.234375,24.53125 L582.4375,22.546875 C583.281254,22.0885394 584.205724,21.729168 585.210938,21.46875 C586.216151,21.208332 587.223953,21.078125 588.234375,21.078125 C590.276052,21.078125 591.789058,21.5312455 592.773438,22.4375 C593.757817,23.3437545 594.25,24.796865 594.25,26.796875 L594.25,38.484375 L592.328125,38.484375 Z M586.46875,36.65625 C588.083341,36.65625 589.351558,36.2135461 590.273438,35.328125 C591.195317,34.4427039 591.65625,33.203133 591.65625,31.609375 L591.65625,30.0625 L589.0625,30.171875 C586.99999,30.244792 585.513025,30.5651013 584.601562,31.1328125 C583.6901,31.7005237 583.234375,32.5833273 583.234375,33.78125 C583.234375,34.7187547 583.518226,35.4322892 584.085938,35.921875 C584.653649,36.4114608 585.447912,36.65625 586.46875,36.65625 L586.46875,36.65625 Z M607.40625,21.046875 C608.16667,21.046875 608.848955,21.1093744 609.453125,21.234375 L609.09375,23.640625 C608.385413,23.4843742 607.760419,23.40625 607.21875,23.40625 C605.833326,23.40625 604.648442,23.9687444 603.664062,25.09375 C602.679683,26.2187556 602.1875,27.6197833 602.1875,29.296875 L602.1875,38.484375 L599.59375,38.484375 L599.59375,21.359375 L601.734375,21.359375 L602.03125,24.53125 L602.15625,24.53125 C602.79167,23.4166611 603.557287,22.5572947 604.453125,21.953125 C605.348963,21.3489553 606.333328,21.046875 607.40625,21.046875 L607.40625,21.046875 Z M624.3125,36.1875 L624.171875,36.1875 C622.973952,37.927092 621.182304,38.796875 618.796875,38.796875 C616.55728,38.796875 614.81511,38.0312577 613.570312,36.5 C612.325515,34.9687423 611.703125,32.7916808 611.703125,29.96875 C611.703125,27.1458192 612.328119,24.9531328 613.578125,23.390625 C614.828131,21.8281172 616.567697,21.046875 618.796875,21.046875 C621.119803,21.046875 622.901035,21.8906166 624.140625,23.578125 L624.34375,23.578125 L624.234375,22.34375 L624.171875,21.140625 L624.171875,14.171875 L626.765625,14.171875 L626.765625,38.484375 L624.65625,38.484375 L624.3125,36.1875 Z M619.125,36.625 C620.895842,36.625 622.179684,36.143234 622.976562,35.1796875 C623.773441,34.216141 624.171875,32.6614691 624.171875,30.515625 L624.171875,29.96875 C624.171875,27.5416545 623.768233,25.809901 622.960938,24.7734375 C622.153642,23.736974 620.864592,23.21875 619.09375,23.21875 C617.572909,23.21875 616.408858,23.8098899 615.601562,24.9921875 C614.794267,26.1744851 614.390625,27.8437392 614.390625,30 C614.390625,32.1875109 614.791663,33.8385361 615.59375,34.953125 C616.395837,36.0677139 617.572909,36.625 619.125,36.625 L619.125,36.625 Z" id="Performance-Dashboar" fill="#FFFFFF"></path>
            </g>
        </g>
    </g>
</svg>