<?xml version="1.0" encoding="UTF-8" standalone="no"?>
<svg width="58px" height="26px" viewBox="0 0 58 26" version="1.1" xmlns="http://www.w3.org/2000/svg" xmlns:xlink="http://www.w3.org/1999/xlink">
    <!-- Generator: Sketch 3.8.3 (29802) - http://www.bohemiancoding.com/sketch -->
    <title>Low_Vision_On</title>
    <desc>Created with Sketch.</desc>
    <defs>
        <rect id="path-1" x="0" y="0" width="58" height="24" rx="12"></rect>
        <filter x="-50%" y="-50%" width="200%" height="200%" filterUnits="objectBoundingBox" id="filter-2">
            <feGaussianBlur stdDeviation="1" in="SourceAlpha" result="shadowBlurInner1"></feGaussianBlur>
            <feOffset dx="0" dy="0" in="shadowBlurInner1" result="shadowOffsetInner1"></feOffset>
            <feComposite in="shadowOffsetInner1" in2="SourceAlpha" operator="arithmetic" k2="-1" k3="1" result="shadowInnerInner1"></feComposite>
            <feColorMatrix values="0 0 0 0 0   0 0 0 0 0   0 0 0 0 0  0 0 0 0.2 0" type="matrix" in="shadowInnerInner1"></feColorMatrix>
        </filter>
        <rect id="path-3" x="0" y="0" width="24" height="24" rx="12"></rect>
        <filter x="-50%" y="-50%" width="200%" height="200%" filterUnits="objectBoundingBox" id="filter-5">
            <feOffset dx="-1" dy="0" in="SourceAlpha" result="shadowOffsetOuter1"></feOffset>
            <feGaussianBlur stdDeviation="0.5" in="shadowOffsetOuter1" result="shadowBlurOuter1"></feGaussianBlur>
            <feColorMatrix values="0 0 0 0 0   0 0 0 0 0   0 0 0 0 0  0 0 0 0.2 0" type="matrix" in="shadowBlurOuter1"></feColorMatrix>
        </filter>
        <rect id="path-6" x="-34" y="0" width="58" height="24" rx="12"></rect>
        <filter x="-50%" y="-50%" width="200%" height="200%" filterUnits="objectBoundingBox" id="filter-7">
            <feGaussianBlur stdDeviation="1" in="SourceAlpha" result="shadowBlurInner1"></feGaussianBlur>
            <feOffset dx="0" dy="0" in="shadowBlurInner1" result="shadowOffsetInner1"></feOffset>
            <feComposite in="shadowOffsetInner1" in2="SourceAlpha" operator="arithmetic" k2="-1" k3="1" result="shadowInnerInner1"></feComposite>
            <feColorMatrix values="0 0 0 0 0   0 0 0 0 0   0 0 0 0 0  0 0 0 0.1 0" type="matrix" in="shadowInnerInner1"></feColorMatrix>
        </filter>
        <mask id="mask-8" maskContentUnits="userSpaceOnUse" maskUnits="objectBoundingBox" x="-1" y="-1" width="60" height="26">
            <rect x="-35" y="-1" width="60" height="26" fill="white"></rect>
            <use xlink:href="#path-6" fill="black"></use>
        </mask>
    </defs>
    <g id="Symbols" stroke="none" stroke-width="1" fill="none" fill-rule="evenodd">
        <g id="Low_Vision_On" transform="translate(0.000000, 1.000000)">
            <g id="Group-43">
                <g>
                    <g id="Rectangle-71">
                        <use fill="#025A96" fill-rule="evenodd" xlink:href="#path-1"></use>
                        <use fill="black" fill-opacity="1" filter="url(#filter-2)" xlink:href="#path-1"></use>
                    </g>
                    <g id="Rectangle-71" transform="translate(34.000000, 0.000000)">
                        <mask id="mask-4" fill="white">
                            <use xlink:href="#path-3"></use>
                        </mask>
                        <g id="Mask">
                            <use fill="black" fill-opacity="1" filter="url(#filter-5)" xlink:href="#path-3"></use>
                            <use fill="#FFFFFF" fill-rule="evenodd" xlink:href="#path-3"></use>
                        </g>
                        <path d="M12.2653273,9.7661698 C12.3376539,9.69384316 12.3749838,9.60401815 12.3749838,9.50019443 C12.3749838,9.39637071 12.3376539,9.30771225 12.2653273,9.23421905 C12.1930006,9.16189242 12.1043422,9.1257291 11.9993519,9.1257291 C11.3484122,9.1257291 10.7896306,9.35787427 10.3241737,9.82449773 C9.85871679,10.2911212 9.62540506,10.8487362 9.62540506,11.499676 C9.62540506,11.6046662 9.66156837,11.6933247 9.73506157,11.7656513 C9.8073882,11.8391445 9.89604666,11.8753078 9.99987038,11.8753078 C10.1036941,11.8753078 10.1923526,11.8391445 10.2658458,11.7656513 C10.3381724,11.6933247 10.3743357,11.6046662 10.3743357,11.499676 C10.3743357,11.052884 10.5341542,10.6690862 10.8514582,10.3517822 C11.1699287,10.0344783 11.5525599,9.87582631 11.9993519,9.87582631 C12.1043422,9.87582631 12.1930006,9.83849644 12.2653273,9.7661698 M18.0001296,12.5005833 C17.2080363,11.2710305 16.2152949,10.3517822 15.0230719,9.74167207 C15.3403759,10.2841218 15.4990279,10.8697343 15.4990279,11.499676 C15.4990279,12.46442 15.1572262,13.2880104 14.4724563,13.9727803 C13.7876863,14.6575502 12.9629294,14.9993519 11.9993519,14.9993519 C11.0357745,14.9993519 10.2121841,14.6575502 9.52741413,13.9727803 C8.8426442,13.2880104 8.49967596,12.46442 8.49967596,11.499676 C8.49967596,10.8697343 8.65949449,10.2841218 8.97679844,9.74167207 C7.7845755,10.3517822 6.79183409,11.2710305 5.99974076,12.5005833 C6.6926766,13.5679844 7.5617628,14.4172391 8.60583279,15.0506805 C9.64990279,15.6829553 10.7814647,16.0002592 11.9993519,16.0002592 C13.2184057,16.0002592 14.3499676,15.6829553 15.3940376,15.0506805 C16.4381076,14.4172391 17.3060272,13.5679844 18.0001296,12.5005833 M18.9987038,12.5005833 C18.9987038,12.6779002 18.9473752,12.8563837 18.8435515,13.0395334 C18.1144524,14.2375891 17.1333765,15.1965003 15.9014906,15.9174336 C14.6707712,16.6395334 13.3688918,17 11.9993519,17 C10.6298121,17 9.32909916,16.6383668 8.09837978,15.9139339 C6.86649384,15.189501 5.88541802,14.2317563 5.15631886,13.0395334 C5.05249514,12.8563837 5,12.6779002 5,12.5005833 C5,12.3232664 5.05249514,12.1436163 5.15631886,11.9604666 C5.88541802,10.7682437 6.86649384,9.81049903 8.09837978,9.0860661 C9.32909916,8.36279974 10.6298121,8 11.9993519,8 C13.3688918,8 14.6707712,8.36279974 15.9014906,9.0860661 C17.1333765,9.81049903 18.1144524,10.7682437 18.8435515,11.9604666 C18.9473752,12.1436163 18.9987038,12.3232664 18.9987038,12.5005833" id="Fill-1" fill="#025A96" mask="url(#mask-4)"></path>
                        <g mask="url(#mask-4)">
                            <use fill-opacity="0.1" fill="#000000" fill-rule="evenodd" xlink:href="#path-6"></use>
                            <use fill="black" fill-opacity="1" filter="url(#filter-7)" xlink:href="#path-6"></use>
                            <use stroke="#DFECF4" mask="url(#mask-8)" stroke-width="2" xlink:href="#path-6"></use>
                        </g>
                    </g>
                </g>
            </g>
        </g>
    </g>
</svg>